<svg width="30" height="30" viewBox="0 0 30 30" fill="none" xmlns="http://www.w3.org/2000/svg">
<path d="M17.2376 25.4801C16.7056 24.8445 16.7056 23.9426 17.2251 23.3216C17.5129 22.9861 18.8438 21.4931 20.8471 20.1722C20.7812 20.17 20.7158 20.1635 20.6496 20.1635C19.5015 20.1635 18.3422 19.5504 18.3422 18.185V17.884C19.2897 17.232 20.0923 16.3125 20.6775 15.2089C21.3185 13.9829 21.6584 12.5784 21.6584 11.1628C21.6584 7.18369 18.9219 4.40829 14.9982 4.40829C11.0745 4.40829 8.3379 7.18369 8.3379 11.1628C8.3379 13.9382 9.60308 16.4852 11.6541 17.8785V18.185C11.6541 19.5504 10.4948 20.1635 9.34669 20.1635C7.70252 20.1635 6.15871 20.8044 4.99942 21.9636C4.57965 22.3797 4.22661 22.8612 3.9411 23.3783C2.11888 20.9746 1.11469 18.0377 1.11469 15.0028C1.11469 7.34465 7.34289 1.11462 14.9982 1.11462C22.6598 1.11462 28.8929 7.34465 28.8929 15.0028C28.8929 16.0415 28.7655 17.0711 28.5346 18.0827C28.6559 18.0975 28.7748 18.1069 28.8978 18.1262C29.1466 18.1665 29.3904 18.2192 29.6321 18.276C29.8734 17.2007 30.0076 16.1068 30.0076 15.0028C30.0076 6.73019 23.2743 0 14.9982 0C6.72813 0 0 6.73019 0 15.0028C0 18.5977 1.29229 22.0745 3.63845 24.793L3.6395 24.7947L3.64093 24.7962C4.83331 26.183 6.25426 27.3253 7.8586 28.1887V24.6553C7.8586 24.282 8.15955 23.981 8.53299 23.981C8.90641 23.981 9.20736 24.282 9.20736 24.6553V28.8409C11.041 29.6099 12.9862 30 14.9982 30C17.0958 30 19.1489 29.5598 21.0318 28.7282C18.9156 27.3763 17.5084 25.7961 17.2376 25.4801Z" fill="#00A431"/>
</svg>
